<svg id="bda10774-6b12-4f4b-9dfe-8b517330a732" data-name="Layer 1" xmlns="http://www.w3.org/2000/svg" viewBox="0 0 1007.5 975.79999"><defs><style>.e13d6301-8830-43d1-96ec-f3e4614b9480{isolation:isolate;}.e82bcf31-c9f3-4a21-bfd4-da4234a9476b{fill:#fefefe;}.aa4f87e6-045d-41a7-921d-8cc6845cda4e{fill:#edb93c;}</style></defs><title>Artboard 1</title><g id="af613bc3-ca66-44f9-bf3d-1c10a28f28f4" data-name="Text"><g class="e13d6301-8830-43d1-96ec-f3e4614b9480"><path class="e82bcf31-c9f3-4a21-bfd4-da4234a9476b" d="M150.646,734.35547q-14.6067,0-24.80567-5.40039A36.85457,36.85457,0,0,1,110.32959,713.835q-5.313-9.71924-5.311-22.67969,0-13.43847,5.6128-23.33984a38.05776,38.05776,0,0,1,16.11426-15.29981q10.50219-5.40087,25.34912-5.40039a68.93471,68.93471,0,0,1,12.312,1.13965,43.83561,43.83561,0,0,1,12.312,4.26074,8.12353,8.12353,0,0,1,4.28516,4.01954,9.721,9.721,0,0,1,.72461,5.46,10.89523,10.89523,0,0,1-2.1128,5.09961,8.57342,8.57342,0,0,1-4.40576,3.06054,8.76261,8.76261,0,0,1-6.21631-.71972,39.34,39.34,0,0,0-16.77832-3.48047q-12.19335,0-18.1665,6.48047-5.9751,6.479-5.9751,18.71972,0,12.24024,6.03516,18.4795,6.03443,6.24169,17.86474,6.24023a52.85963,52.85963,0,0,0,12.43311-1.67969V700.875H155.957q-8.57226,0-8.57031-7.7998,0-7.67872,8.57031-7.67969h17.86475q8.69091,0,8.69092,8.63965v26.51953a11.71229,11.71229,0,0,1-1.50879,6.12011,8.36293,8.36293,0,0,1-4.76758,3.60059,83.21,83.21,0,0,1-25.59033,4.08008Z"/><path class="e82bcf31-c9f3-4a21-bfd4-da4234a9476b" d="M225.9668,734.35547a37.81975,37.81975,0,0,1-17.26123-3.7207,27.287,27.287,0,0,1-11.46729-10.67969,35.09917,35.09917,0,0,1,0-32.93946,27.42169,27.42169,0,0,1,11.46729-10.62011,41.89976,41.89976,0,0,1,34.52246,0,27.05648,27.05648,0,0,1,11.40722,10.62011,35.5637,35.5637,0,0,1,0,32.93946A26.92709,26.92709,0,0,1,243.228,730.63477,37.82837,37.82837,0,0,1,225.9668,734.35547Zm0-15.7207a10.10857,10.10857,0,0,0,7.96679-3.59961q3.1377-3.60059,3.13868-11.51954,0-8.03906-3.13868-11.58007a10.1859,10.1859,0,0,0-7.96679-3.54,10.31288,10.31288,0,0,0-8.08741,3.54q-3.13989,3.54052-3.13818,11.58007,0,7.919,3.13818,11.51954A10.233,10.233,0,0,0,225.9668,718.63477Z"/><path class="e82bcf31-c9f3-4a21-bfd4-da4234a9476b" d="M299.11621,734.35547q-13.52051,0-20.0376-6.24024-6.51782-6.23877-6.51806-18.83984V689.71484h-4.104q-8.08887,0-8.0874-7.91992,0-7.79883,8.0874-7.7998h4.104v-7.44043q0-5.27784,2.77636-8.03907,2.77515-2.75976,7.9668-2.76074,10.74169,0,10.74268,10.79981v7.44043h9.89843q8.2068,0,8.208,7.7998,0,7.92042-8.208,7.91992h-9.89843v18.83985q0,8.64111,8.812,8.64062a14.52,14.52,0,0,0,3.25879-.36035,12.98959,12.98959,0,0,1,2.897-.35937,3.80531,3.80531,0,0,1,3.13867,1.13964q1.20483,1.25977,1.207,5.7002a14.99,14.99,0,0,1-1.08642,6.05957,6.61971,6.61971,0,0,1-3.8628,3.54,25.0743,25.0743,0,0,1-4.58691,1.02051A34.37088,34.37088,0,0,1,299.11621,734.35547Z"/><path class="e82bcf31-c9f3-4a21-bfd4-da4234a9476b" d="M386.50781,734.11523q-5.313,0-8.20849-2.94043-2.89674-2.93847-2.897-8.46V695.59473l-23.17578-33.35938a9.43022,9.43022,0,0,1,1.14649-12.36035q2.595-2.51954,7.42383-2.51953a11.67721,11.67721,0,0,1,6.15624,1.67969,16.89072,16.89072,0,0,1,5.19043,5.40039L386.86963,675.915l14.72656-21.59961a17.90812,17.90812,0,0,1,5.19043-5.33984,11.813,11.813,0,0,1,6.27686-1.62012q4.58569,0,7.12158,2.2793a8.01305,8.01305,0,0,1,2.71582,5.76074,11.56392,11.56392,0,0,1-2.23291,7.08008l-23.05518,33.11914v27.12011Q397.61279,734.1172,386.50781,734.11523Z"/><path class="e82bcf31-c9f3-4a21-bfd4-da4234a9476b" d="M451.32764,734.35547a37.81975,37.81975,0,0,1-17.26123-3.7207,27.287,27.287,0,0,1-11.46729-10.67969,35.09917,35.09917,0,0,1,0-32.93946,27.42169,27.42169,0,0,1,11.46729-10.62011,41.89976,41.89976,0,0,1,34.52246,0,27.05648,27.05648,0,0,1,11.40722,10.62011,35.5637,35.5637,0,0,1,0,32.93946,26.92709,26.92709,0,0,1-11.40722,10.67969A37.82837,37.82837,0,0,1,451.32764,734.35547Zm0-15.7207a10.10857,10.10857,0,0,0,7.96679-3.59961q3.1377-3.60059,3.13868-11.51954,0-8.03906-3.13868-11.58007a10.1859,10.1859,0,0,0-7.96679-3.54,10.31288,10.31288,0,0,0-8.08741,3.54q-3.13989,3.54052-3.13818,11.58007,0,7.919,3.13818,11.51954A10.233,10.233,0,0,0,451.32764,718.63477Z"/><path class="e82bcf31-c9f3-4a21-bfd4-da4234a9476b" d="M516.14648,734.35547q-11.5869,0-17.08007-6.30078-5.4939-6.29883-5.49219-19.25977V683.59473q0-10.67871,10.74316-10.67969,5.18848,0,7.9668,2.75976,2.77589,2.7627,2.77637,7.91993v25.80078q0,8.63964,7.48437,8.63965a9.09921,9.09921,0,0,0,7.1211-3.12012,11.99682,11.99682,0,0,0,2.77636-8.28027v-23.04q0-10.67871,10.74317-10.67969,5.18847,0,7.96679,2.75976,2.77441,2.7627,2.77539,7.91993v39.7207q0,10.80029-10.38085,10.7998-9.29591,0-10.501-8.63964Q527.25244,734.35693,516.14648,734.35547Z"/><path class="e82bcf31-c9f3-4a21-bfd4-da4234a9476b" d="M577.46582,734.11523q-10.98486,0-10.98437-10.7998v-39.7207q0-10.67871,10.501-10.67969,4.94824,0,7.666,2.75976,2.71581,2.7627,2.71484,7.91993v.36035a17.03928,17.03928,0,0,1,6.63965-8.16016,20.1516,20.1516,0,0,1,10.86426-3.12012,6.56012,6.56012,0,0,1,5.25,1.74024q1.749,1.86182,1.87109,6.90039a11.5098,11.5098,0,0,1-1.81055,6.83984q-1.81055,2.51954-6.88085,3l-2.7754.24024q-6.3999.60206-9.29492,3.54-2.89746,2.94139-2.89648,8.69922v19.68066Q588.33008,734.11572,577.46582,734.11523Z"/><path class="e82bcf31-c9f3-4a21-bfd4-da4234a9476b" d="M666.42578,733.03516q-11.58691,0-11.58789-11.40039V659.835q0-11.39941,11.58789-11.39941h29.45313q13.76073,0,21.30468,5.93945a19.20313,19.20313,0,0,1,7.54493,15.90039,20.10112,20.10112,0,0,1-3.32032,11.51953,19.7953,19.7953,0,0,1-9.23437,7.32031A20.898,20.898,0,0,1,723.1582,696.375a20.37287,20.37287,0,0,1,3.86328,12.66016q0,11.16065-8.02734,17.58007-8.02734,6.42042-21.9082,6.41993Zm9.65625-51h15.8125q6.03516,0,8.873-2.16016,2.83593-2.15918,2.83594-6.59961,0-4.43847-2.83594-6.54-2.83887-2.09911-8.873-2.10058H676.082Zm0,34.7998h17.98633q6.15528,0,8.99219-2.33984,2.83593-2.33936,2.83789-7.01953,0-4.68018-2.83789-6.96-2.83594-2.2793-8.99219-2.28027H676.082Z"/><path class="e82bcf31-c9f3-4a21-bfd4-da4234a9476b" d="M758.76758,734.35547a27.71208,27.71208,0,0,1-12.13086-2.52051,20.16723,20.16723,0,0,1-8.209-6.89941,17.47437,17.47437,0,0,1-2.957-10.02051q0-6.35889,3.37989-10.13965,3.37793-3.78077,10.86425-5.40039a97.84377,97.84377,0,0,1,19.916-1.62012h4.58691V696.0752q0-4.31984-2.23242-6.12012-2.23534-1.8003-7.665-1.79981a36.31769,36.31769,0,0,0-6.5791.66016,48.07873,48.07873,0,0,0-8.02637,2.33984q-3.98437,1.43994-6.63964-.12011a7.18354,7.18354,0,0,1-3.43946-4.5,8.33627,8.33627,0,0,1,.60352-5.87989,8.86938,8.86938,0,0,1,5.37109-4.37988,61.96357,61.96357,0,0,1,10.68262-2.82031,57.44708,57.44708,0,0,1,8.99316-.78028q14.84619,0,22.02832,6.36036,7.18066,6.36182,7.18262,20.04v24.24023q0,10.80029-9.89844,10.7998-9.41454,0-10.01855-9.59961a14.22981,14.22981,0,0,1-5.79395,7.19922A18.15129,18.15129,0,0,1,758.76758,734.35547Zm4.82812-13.91992a10.62757,10.62757,0,0,0,7.54395-2.88086,9.86781,9.86781,0,0,0,3.07812-7.55957V707.835h-4.58691q-7.12353,0-10.44043,1.5a4.962,4.962,0,0,0-3.32031,4.74024,5.87528,5.87528,0,0,0,1.99218,4.55957A8.26762,8.26762,0,0,0,763.5957,720.43555Z"/><path class="e82bcf31-c9f3-4a21-bfd4-da4234a9476b" d="M836.98535,734.35547a38.48969,38.48969,0,0,1-17.44238-3.7207,27.2165,27.2165,0,0,1-11.52735-10.67969,35.34435,35.34435,0,0,1,0-33.05957A26.97475,26.97475,0,0,1,819.543,676.335a39.02116,39.02116,0,0,1,17.44238-3.66016,43.93918,43.93918,0,0,1,7.36328.66016,34.26159,34.26159,0,0,1,7.9668,2.46,7.35388,7.35388,0,0,1,3.9834,3.29981,8.4759,8.4759,0,0,1,1.02637,4.74023,9.83406,9.83406,0,0,1-1.44922,4.56055,6.27853,6.27853,0,0,1-3.5,2.75976,6.69365,6.69365,0,0,1-5.00977-.60058,19.47989,19.47989,0,0,0-8.08691-1.79981q-6.3999,0-9.89844,3.83985-3.50244,3.84228-3.5,10.80078,0,7.08105,3.5,10.97949,3.49952,3.90089,9.89844,3.90039a19.7765,19.7765,0,0,0,3.9834-.41992,18.33251,18.33251,0,0,0,4.10351-1.37988,6.53,6.53,0,0,1,5.00977-.54,6.68946,6.68946,0,0,1,3.37988,2.75976,9.45967,9.45967,0,0,1,1.44824,4.5,8.47153,8.47153,0,0,1-1.02539,4.74024,7.34222,7.34222,0,0,1-4.10449,3.2998,34.61412,34.61412,0,0,1-7.8457,2.46A41.85878,41.85878,0,0,1,836.98535,734.35547Z"/><path class="e82bcf31-c9f3-4a21-bfd4-da4234a9476b" d="M875.73242,734.11523q-5.19141,0-7.90625-2.75976-2.71728-2.75977-2.71679-8.04V658.15527q0-10.80029,10.623-10.7998,5.18848,0,8.02637,2.75976,2.83593,2.76123,2.83691,8.04v39.59961h.24121l14.72657-17.75976a25.63917,25.63917,0,0,1,5.61328-5.40039,12.88545,12.88545,0,0,1,7.06152-1.67969q4.46339,0,6.87988,2.16016a7.14,7.14,0,0,1,2.47461,5.40039,9.94128,9.94128,0,0,1-2.59472,6.47949l-12.7959,15.12012,14.72656,18.47949q2.53565,3.48193,2.11231,6.54a7.43648,7.43648,0,0,1-3.01758,5.04,10.53557,10.53557,0,0,1-6.57813,1.98046,14.855,14.855,0,0,1-7.78613-1.74023,22.46742,22.46742,0,0,1-5.7334-5.46l-15.08887-18.47949h-.24121v14.87988Q886.5957,734.11572,875.73242,734.11523Z"/></g></g><g id="a3422916-f7b2-4a62-b551-767c12fdbaf9" data-name="Logo"><path class="aa4f87e6-045d-41a7-921d-8cc6845cda4e" d="M660.4,187.4c-37.1-13.7-84-23.1-143.1-28.2-28.9-27.4-43.3-28.1-71.4-9.6a63.72061,63.72061,0,0,1-19.7,10.2,45.33382,45.33382,0,0,1-16-.5c-12.6-1.9-28.4-4.2-44.1,14.8a39.40316,39.40316,0,0,0-.5,50.4,27.85879,27.85879,0,0,0,34.4,7.7c10.8-5.2,38.8-16.7,49.3-20.9l6.4,4.5-6.5,33.6a17.14888,17.14888,0,0,0,13.6,19.8,692.64439,692.64439,0,0,0,169,32.7,27.55335,27.55335,0,0,0,20.2-7.2,25.02936,25.02936,0,0,0,8-19c0-20.4-2.2-21.3,8-47.1a140.50274,140.50274,0,0,0,5.4-15.4A20.969,20.969,0,0,0,660.4,187.4Z"/><path class="aa4f87e6-045d-41a7-921d-8cc6845cda4e" d="M381.8,394.5c9.8-6.8,35.7-22.2,45.4-28l7,3.5-1,34.2c-.4,9.2,7,17,16.5,17.6a799.81081,799.81081,0,0,0,119.7,9.9,522.54774,522.54774,0,0,0,52.6-2.5,27.38067,27.38067,0,0,0,18.8-10.3c11.4-14.6,1-26.7,1.5-43.9.5-13.7,5.2-27.2,6.6-39.9,1.2-10.8-6.2-20.7-17.2-23.1-38.9-7.7-86.7-10.2-145.9-6.7-17.7-12.2-31.9-17.7-42.5-16-21.7,3.2-31.9,23.7-47.9,30-14.7,5.7-39-7-56.7,23.1a39.56087,39.56087,0,0,0,7.5,49.9A28.22344,28.22344,0,0,0,381.8,394.5Z"/><path class="aa4f87e6-045d-41a7-921d-8cc6845cda4e" d="M651.1,453.9c-1.2-11-11-19.2-22.4-18.8-39.9,1-86.7,9.7-143.7,26.7-20.2-7.7-35.4-9.9-45.2-6a57.21763,57.21763,0,0,0-24.6,23.1c-11.8,17.4-15.5,18.7-29,21.9s-27.9,6.6-34.8,29.9c-11.1,37.1,31.9,66.1,54.4,41.4,8-8.9,29.3-29.7,37.4-37.5l8,1.8,7.3,33.5a17.59889,17.59889,0,0,0,17.2,13.9,16.05907,16.05907,0,0,0,3.1,0,698.52428,698.52428,0,0,0,169.1-32.3,27.08247,27.08247,0,0,0,16-14.2c7.5-16.8-5.6-26.2-9.3-43C651.8,480.7,652.8,466.6,651.1,453.9Z"/></g></svg>