<svg xmlns="http://www.w3.org/2000/svg" xmlns:xlink="http://www.w3.org/1999/xlink" aria-hidden="true" focusable="false" width="1em" height="1em" style="-ms-transform: rotate(360deg); -webkit-transform: rotate(360deg); transform: rotate(360deg);" preserveAspectRatio="xMidYMid meet" viewBox="0 0 20 20"><g fill="none"><path d="M7.5 9.5a1 1 0 1 0 0-2a1 1 0 0 0 0 2z" fill="#626262"/><path d="M13.5 8.5a1 1 0 1 1-2 0a1 1 0 0 1 2 0z" fill="#626262"/><path d="M6.5 12a.5.5 0 0 0 0 1h7a.5.5 0 0 0 0-1h-7z" fill="#626262"/><path d="M2 10a8 8 0 1 1 16 0a8 8 0 0 1-16 0zm8-7a7 7 0 1 0 0 14a7 7 0 0 0 0-14z" fill="#626262"/></g></svg>