<svg xmlns="http://www.w3.org/2000/svg" viewBox="0 0 908.99992 290.17665"><defs><style>.b0a3fb21-aeda-4bed-97a9-d9f0b87bd3db{fill:#fff;}.b71bc91b-25fd-4d64-b343-8e7e66e116d0{fill:#00469d;}.b73fb391-9307-434a-9341-1a97c0035aff,.bbd71274-2126-4bdf-aad3-9a0fd78cf190{fill:#002397;stroke:#001a9f;stroke-linecap:round;stroke-miterlimit:10;}.bbd71274-2126-4bdf-aad3-9a0fd78cf190{stroke-width:0.5px;}.b73fb391-9307-434a-9341-1a97c0035aff{stroke-width:0.25px;}.fdc52c37-5e1d-4d67-b1c5-8853b2bca46f{fill:#002c9f;}</style></defs><title>Asset 4</title><g id="fff829f5-ba66-4f3d-89ce-e8849cd7c238" data-name="Layer 2"><g id="aa761617-eec8-454f-a51d-8cb7e7fb0ce3" data-name="Layer 1"><path id="eab9c97f-311c-4c21-b96e-fe56309b7dda" data-name="Rygg" class="b0a3fb21-aeda-4bed-97a9-d9f0b87bd3db" d="M233.13351,58.799l-38.85-7.403a28.34307,28.34307,0,0,1-23.038-27.843V7.497A7.497,7.497,0,0,0,163.74852,0h-61.056a7.497,7.497,0,0,0-7.497,7.497V23.553a28.344,28.344,0,0,1-23.038,27.843l-38.85,7.403A40.97638,40.97638,0,0,0,.11952,102.16l13.597,178.717a7.4965,7.4965,0,0,0,7.475,6.928h32.353l6.447-41.906-25.268-110.538a8.74046,8.74046,0,0,1,17.041-3.897l26.012,113.793-6.545,42.547h123.98l-6.545-42.547,26.011-113.792a8.74023,8.74023,0,0,1,17.041,3.895l-25.267,110.538,6.446,41.906h32.353a7.49646,7.49646,0,0,0,7.475-6.928l13.597-178.717A40.97773,40.97773,0,0,0,233.13351,58.799Zm-92.92,159.108a6.992,6.992,0,0,1-13.984,0V87.962a6.992,6.992,0,0,1,13.984,0Z"/><path id="a1fb5ee4-0c39-49a2-9adf-e9931988e278" data-name="Rygg" class="b0a3fb21-aeda-4bed-97a9-d9f0b87bd3db" d="M875.69152,61.17062l-38.85-7.403a28.34307,28.34307,0,0,1-23.038-27.843V9.86862a7.497,7.497,0,0,0-7.497-7.497h-61.056a7.497,7.497,0,0,0-7.497,7.497v16.056a28.344,28.344,0,0,1-23.038,27.843l-38.85,7.403a40.97639,40.97639,0,0,0-33.188,43.361l13.597,178.717a7.4965,7.4965,0,0,0,7.475,6.928h32.353l6.447-41.906-25.268-110.538a8.74046,8.74046,0,1,1,17.041-3.897l26.012,113.793-6.545,42.547h123.98l-6.545-42.547,26.011-113.792a8.74023,8.74023,0,0,1,17.041,3.895l-25.267,110.538,6.446,41.906h32.353a7.49646,7.49646,0,0,0,7.475-6.928l13.597-178.717A40.97773,40.97773,0,0,0,875.69152,61.17062Zm-92.92,159.108a6.992,6.992,0,0,1-13.984,0V90.33362a6.992,6.992,0,0,1,13.984,0Z"/><path id="f49618a0-da71-4975-ad42-3e2841a25152" data-name="Rygg" class="b0a3fb21-aeda-4bed-97a9-d9f0b87bd3db" d="M556.61193,60.62024l-38.85-7.403a28.34307,28.34307,0,0,1-23.038-27.843V9.31824a7.497,7.497,0,0,0-7.497-7.497h-61.056a7.497,7.497,0,0,0-7.497,7.497v16.056a28.344,28.344,0,0,1-23.038,27.843l-38.85,7.403a40.97639,40.97639,0,0,0-33.188,43.361l13.597,178.717a7.49651,7.49651,0,0,0,7.475,6.928h32.353l6.447-41.906-25.268-110.538a8.74046,8.74046,0,0,1,17.041-3.897l26.012,113.793-6.545,42.547h123.98l-6.545-42.547,26.011-113.792a8.74023,8.74023,0,0,1,17.041,3.895l-25.267,110.538,6.446,41.906h32.353a7.49647,7.49647,0,0,0,7.475-6.928l13.597-178.717A40.97773,40.97773,0,0,0,556.61193,60.62024Zm-92.92,159.108a6.992,6.992,0,0,1-13.984,0V89.78324a6.992,6.992,0,0,1,13.984,0Z"/><g id="b8a17310-d076-48f0-9a21-09c5303eb28c" data-name="Sensor"><ellipse class="b71bc91b-25fd-4d64-b343-8e7e66e116d0" cx="125.39677" cy="68.68125" rx="1.66504" ry="1.03608" transform="matrix(0.77804, -0.62821, 0.62821, 0.77804, -15.31363, 94.0199)"/><ellipse class="b71bc91b-25fd-4d64-b343-8e7e66e116d0" cx="142.31823" cy="68.63763" rx="1.04575" ry="1.64963" transform="translate(-6.43362 121.91509) rotate(-45.45287)"/><ellipse class="b71bc91b-25fd-4d64-b343-8e7e66e116d0" cx="125.46049" cy="53.27522" rx="1.32444" ry="1.82124" transform="translate(1.80896 110.624) rotate(-47.88946)"/><ellipse class="b71bc91b-25fd-4d64-b343-8e7e66e116d0" cx="142.34942" cy="53.19687" rx="1.65012" ry="1.04544" transform="translate(3.38767 114.70213) rotate(-44.36549)"/><path class="b71bc91b-25fd-4d64-b343-8e7e66e116d0" d="M143.47119,69.78786a55.70365,55.70365,0,0,0-19.25091,0,34.94723,34.94723,0,0,0,0-17.73957,48.706,48.706,0,0,0,19.25091,0,34.94723,34.94723,0,0,0,0,17.73957Z"/><line class="bbd71274-2126-4bdf-aad3-9a0fd78cf190" x1="125.70112" y1="53.51978" x2="127.0249" y2="54.72558"/><line class="bbd71274-2126-4bdf-aad3-9a0fd78cf190" x1="142.03488" y1="53.61961" x2="140.84566" y2="54.93662"/><line class="bbd71274-2126-4bdf-aad3-9a0fd78cf190" x1="140.41939" y1="66.91858" x2="141.74317" y2="68.12438"/><line class="b73fb391-9307-434a-9341-1a97c0035aff" x1="127.22648" y1="66.86298" x2="126.03726" y2="68.17998"/><ellipse class="fdc52c37-5e1d-4d67-b1c5-8853b2bca46f" cx="133.86127" cy="60.99315" rx="0.54539" ry="0.49717"/></g><g id="f140fdb8-c725-45c9-b1d9-fe2865e6c40a" data-name="Sensor"><ellipse class="b71bc91b-25fd-4d64-b343-8e7e66e116d0" cx="448.99193" cy="68.91159" rx="1.66504" ry="1.03608" transform="translate(56.36586 297.35705) rotate(-38.91825)"/><ellipse class="b71bc91b-25fd-4d64-b343-8e7e66e116d0" cx="465.9134" cy="68.86797" rx="1.04575" ry="1.64963" transform="translate(89.99677 352.60161) rotate(-45.45287)"/><ellipse class="b71bc91b-25fd-4d64-b343-8e7e66e116d0" cx="449.05565" cy="53.50556" rx="1.32444" ry="1.82124" transform="translate(108.24227 350.75976) rotate(-47.88946)"/><ellipse class="b71bc91b-25fd-4d64-b343-8e7e66e116d0" cx="465.94458" cy="53.42721" rx="1.65012" ry="1.04544" transform="translate(95.48553 341.03616) rotate(-44.36549)"/><path class="b71bc91b-25fd-4d64-b343-8e7e66e116d0" d="M467.06635,70.0182a55.70365,55.70365,0,0,0-19.25091,0,34.94723,34.94723,0,0,0,0-17.73957,48.706,48.706,0,0,0,19.25091,0,34.94723,34.94723,0,0,0,0,17.73957Z"/><line class="bbd71274-2126-4bdf-aad3-9a0fd78cf190" x1="449.29628" y1="53.75012" x2="450.62006" y2="54.95592"/><line class="bbd71274-2126-4bdf-aad3-9a0fd78cf190" x1="465.63004" y1="53.84995" x2="464.44082" y2="55.16696"/><line class="bbd71274-2126-4bdf-aad3-9a0fd78cf190" x1="464.01455" y1="67.14892" x2="465.33833" y2="68.35472"/><line class="b73fb391-9307-434a-9341-1a97c0035aff" x1="450.82164" y1="67.09332" x2="449.63242" y2="68.41033"/><ellipse class="fdc52c37-5e1d-4d67-b1c5-8853b2bca46f" cx="457.45643" cy="61.22349" rx="0.54539" ry="0.49717"/></g><g id="a1d082a8-17d2-42aa-a9f4-1b3163d6e82a" data-name="Sensor"><ellipse class="b71bc91b-25fd-4d64-b343-8e7e66e116d0" cx="449.2831" cy="255.58824" rx="1.66504" ry="1.03608" transform="translate(-60.84183 338.97415) rotate(-38.91825)"/><ellipse class="b71bc91b-25fd-4d64-b343-8e7e66e116d0" cx="466.20456" cy="255.54463" rx="1.04575" ry="1.64963" transform="translate(-42.95586 408.5329) rotate(-45.45287)"/><ellipse class="b71bc91b-25fd-4d64-b343-8e7e66e116d0" cx="449.34682" cy="240.18222" rx="1.32444" ry="1.82124" transform="translate(-30.14836 412.47394) rotate(-47.88946)"/><ellipse class="b71bc91b-25fd-4d64-b343-8e7e66e116d0" cx="466.23574" cy="240.10387" rx="1.65012" ry="1.04544" transform="translate(-34.96191 394.46239) rotate(-44.36549)"/><path class="b71bc91b-25fd-4d64-b343-8e7e66e116d0" d="M467.35752,256.69486a55.7037,55.7037,0,0,0-19.25092,0,34.94693,34.94693,0,0,0,0-17.73957,48.70606,48.70606,0,0,0,19.25092,0,34.94693,34.94693,0,0,0,0,17.73957Z"/><line class="bbd71274-2126-4bdf-aad3-9a0fd78cf190" x1="449.58744" y1="240.42678" x2="450.91122" y2="241.63258"/><line class="bbd71274-2126-4bdf-aad3-9a0fd78cf190" x1="465.9212" y1="240.52661" x2="464.73198" y2="241.84362"/><line class="bbd71274-2126-4bdf-aad3-9a0fd78cf190" x1="464.30571" y1="253.82558" x2="465.62949" y2="255.03138"/><line class="b73fb391-9307-434a-9341-1a97c0035aff" x1="451.11281" y1="253.76997" x2="449.92358" y2="255.08698"/><ellipse class="fdc52c37-5e1d-4d67-b1c5-8853b2bca46f" cx="457.74759" cy="247.90015" rx="0.54539" ry="0.49717"/></g><g id="e121ed2e-d3e6-4813-9561-d138b41be66a" data-name="Sensor"><ellipse class="b71bc91b-25fd-4d64-b343-8e7e66e116d0" cx="767.99193" cy="68.91159" rx="1.66504" ry="1.03608" transform="translate(127.17013 497.75635) rotate(-38.91825)"/><ellipse class="b71bc91b-25fd-4d64-b343-8e7e66e116d0" cx="784.9134" cy="68.86797" rx="1.04575" ry="1.64963" transform="translate(185.21965 579.94452) rotate(-45.45287)"/><ellipse class="b71bc91b-25fd-4d64-b343-8e7e66e116d0" cx="768.05565" cy="53.50556" rx="1.32444" ry="1.82124" transform="translate(213.33263 587.41071) rotate(-47.88946)"/><ellipse class="b71bc91b-25fd-4d64-b343-8e7e66e116d0" cx="784.94458" cy="53.42721" rx="1.65012" ry="1.04544" transform="translate(186.43434 564.09144) rotate(-44.36549)"/><path class="b71bc91b-25fd-4d64-b343-8e7e66e116d0" d="M786.06635,70.0182a55.70365,55.70365,0,0,0-19.25091,0,34.94723,34.94723,0,0,0,0-17.73957,48.706,48.706,0,0,0,19.25091,0,34.94723,34.94723,0,0,0,0,17.73957Z"/><line class="bbd71274-2126-4bdf-aad3-9a0fd78cf190" x1="768.29628" y1="53.75012" x2="769.62006" y2="54.95592"/><line class="bbd71274-2126-4bdf-aad3-9a0fd78cf190" x1="784.63004" y1="53.84995" x2="783.44082" y2="55.16696"/><line class="bbd71274-2126-4bdf-aad3-9a0fd78cf190" x1="783.01455" y1="67.14892" x2="784.33833" y2="68.35472"/><line class="b73fb391-9307-434a-9341-1a97c0035aff" x1="769.82164" y1="67.09332" x2="768.63242" y2="68.41033"/><ellipse class="fdc52c37-5e1d-4d67-b1c5-8853b2bca46f" cx="776.45643" cy="61.22349" rx="0.54539" ry="0.49717"/></g><g id="ad7376ee-0c02-446a-8861-4a05863a6eb1" data-name="Sensor"><ellipse class="b71bc91b-25fd-4d64-b343-8e7e66e116d0" cx="843.2831" cy="93.58824" rx="1.66504" ry="1.03608" transform="translate(128.37938 550.53224) rotate(-38.91825)"/><ellipse class="b71bc91b-25fd-4d64-b343-8e7e66e116d0" cx="860.20456" cy="93.54463" rx="1.04575" ry="1.64963" transform="translate(190.10798 640.96864) rotate(-45.45287)"/><ellipse class="b71bc91b-25fd-4d64-b343-8e7e66e116d0" cx="843.34682" cy="78.18222" rx="1.32444" ry="1.82124" transform="translate(219.82988 651.39504) rotate(-47.88946)"/><ellipse class="b71bc91b-25fd-4d64-b343-8e7e66e116d0" cx="860.23574" cy="78.10387" rx="1.65012" ry="1.04544" transform="translate(190.64557 623.77295) rotate(-44.36549)"/><path class="b71bc91b-25fd-4d64-b343-8e7e66e116d0" d="M861.35752,94.69486a55.7037,55.7037,0,0,0-19.25092,0,34.94693,34.94693,0,0,0,0-17.73957,48.70606,48.70606,0,0,0,19.25092,0,34.94693,34.94693,0,0,0,0,17.73957Z"/><line class="bbd71274-2126-4bdf-aad3-9a0fd78cf190" x1="843.58744" y1="78.42678" x2="844.91122" y2="79.63258"/><line class="bbd71274-2126-4bdf-aad3-9a0fd78cf190" x1="859.9212" y1="78.52661" x2="858.73198" y2="79.84362"/><line class="bbd71274-2126-4bdf-aad3-9a0fd78cf190" x1="858.30571" y1="91.82558" x2="859.62949" y2="93.03138"/><line class="b73fb391-9307-434a-9341-1a97c0035aff" x1="845.11281" y1="91.76997" x2="843.92358" y2="93.08698"/><ellipse class="fdc52c37-5e1d-4d67-b1c5-8853b2bca46f" cx="851.74759" cy="85.90015" rx="0.54539" ry="0.49717"/></g><g id="b6b95cd4-862c-4c30-ac1e-dcc1d5a709dd" data-name="Sensor"><ellipse class="b71bc91b-25fd-4d64-b343-8e7e66e116d0" cx="768.2831" cy="255.58824" rx="1.66504" ry="1.03608" transform="translate(9.96243 539.37344) rotate(-38.91825)"/><ellipse class="b71bc91b-25fd-4d64-b343-8e7e66e116d0" cx="785.20456" cy="255.54463" rx="1.04575" ry="1.64963" transform="translate(52.26702 635.87582) rotate(-45.45287)"/><ellipse class="b71bc91b-25fd-4d64-b343-8e7e66e116d0" cx="768.34682" cy="240.18222" rx="1.32444" ry="1.82124" transform="translate(74.94201 649.12488) rotate(-47.88946)"/><ellipse class="b71bc91b-25fd-4d64-b343-8e7e66e116d0" cx="785.23574" cy="240.10387" rx="1.65012" ry="1.04544" transform="translate(55.9869 617.51766) rotate(-44.36549)"/><path class="b71bc91b-25fd-4d64-b343-8e7e66e116d0" d="M786.35752,256.69486a55.7037,55.7037,0,0,0-19.25092,0,34.94693,34.94693,0,0,0,0-17.73957,48.70606,48.70606,0,0,0,19.25092,0,34.94693,34.94693,0,0,0,0,17.73957Z"/><line class="bbd71274-2126-4bdf-aad3-9a0fd78cf190" x1="768.58744" y1="240.42678" x2="769.91122" y2="241.63258"/><line class="bbd71274-2126-4bdf-aad3-9a0fd78cf190" x1="784.9212" y1="240.52661" x2="783.73198" y2="241.84362"/><line class="bbd71274-2126-4bdf-aad3-9a0fd78cf190" x1="783.30571" y1="253.82558" x2="784.62949" y2="255.03138"/><line class="b73fb391-9307-434a-9341-1a97c0035aff" x1="770.11281" y1="253.76997" x2="768.92358" y2="255.08698"/><ellipse class="fdc52c37-5e1d-4d67-b1c5-8853b2bca46f" cx="776.74759" cy="247.90015" rx="0.54539" ry="0.49717"/></g><path d="M154.145,55.73683h1.4707v9.875h-2.12939V57.9214l-1.709.4209-.44824-1.76562Z"/><path d="M477.45652,56.04152h1.4707v9.875h-2.12939V58.22609l-1.709.4209-.44824-1.76562Z"/><path d="M797.45652,56.04152h1.4707v9.875h-2.12939V58.22609l-1.709.4209-.44824-1.76562Z"/><path d="M476.62986,246.22121l-1.51269-1.21875a4.09108,4.09108,0,0,1,3.65576-2.03125c2.0874,0,3.376,1.20508,3.376,3.04,0,1.63867-.84033,2.46484-2.57763,3.80957l-1.59668,1.23242h4.27246v1.86328h-7.25586v-1.709l3.26367-2.67578c1.21875-1.00782,1.69482-1.54,1.69482-2.35254a1.20307,1.20307,0,0,0-1.31689-1.27539C477.87644,244.90383,477.35838,245.32472,476.62986,246.22121Z"/><path d="M794.21238,246.41652l-1.5127-1.21875a4.09111,4.09111,0,0,1,3.65577-2.03125c2.0874,0,3.376,1.20508,3.376,3.04,0,1.63867-.84033,2.46484-2.57763,3.80957l-1.59668,1.23242h4.27246v1.86328h-7.25586v-1.709l3.26367-2.67578c1.21875-1.00781,1.69482-1.54,1.69482-2.35254a1.20307,1.20307,0,0,0-1.31689-1.27539C795.459,245.09914,794.9409,245.52,794.21238,246.41652Z"/><path d="M867.25877,82.854V81.00441h6.626v1.625l-2.47949,2.36719c1.34473.22461,2.6333.9248,2.6333,2.75977a3.2005,3.2005,0,0,1-3.52978,3.22168,4.75844,4.75844,0,0,1-3.82422-1.69434l1.48486-1.415a2.9931,2.9931,0,0,0,2.36719,1.17676,1.23232,1.23232,0,0,0,1.38672-1.20508c0-.8125-.686-1.26074-1.91895-1.26074h-.89648l-.33594-1.37305,2.33887-2.35254Z"/></g></g></svg>