<svg xmlns="http://www.w3.org/2000/svg" viewBox="0 0 908.99992 290.17665"><defs><style>.e6bfe88e-7594-43f1-a306-60364e6c28b9{fill:#fff;}.ff3d6668-2b0f-4621-8cc9-f625372f39ed{fill:#00469d;}.b88e8a99-bb61-4be4-8d97-52d5647f2497,.ede19866-0fe8-4c4a-b712-b6fab7b0cc6c{fill:#002397;stroke:#001a9f;stroke-linecap:round;stroke-miterlimit:10;}.ede19866-0fe8-4c4a-b712-b6fab7b0cc6c{stroke-width:0.5px;}.b88e8a99-bb61-4be4-8d97-52d5647f2497{stroke-width:0.25px;}.ef1624a6-a7df-4241-aae6-41cc8efcbd1a{fill:#002c9f;}</style></defs><title>Asset 2</title><g id="ed665cc6-354e-49fc-ac54-ab326c1c60e5" data-name="Layer 2"><g id="be52d4c8-95c7-406a-9432-7083f5618911" data-name="Layer 1"><path id="fc560a51-caa4-40fc-8109-4188c70a8fc4" data-name="Rygg" class="e6bfe88e-7594-43f1-a306-60364e6c28b9" d="M233.13351,58.799l-38.85-7.403a28.34307,28.34307,0,0,1-23.038-27.843V7.497A7.497,7.497,0,0,0,163.74852,0h-61.056a7.497,7.497,0,0,0-7.497,7.497V23.553a28.344,28.344,0,0,1-23.038,27.843l-38.85,7.403A40.97638,40.97638,0,0,0,.11952,102.16l13.597,178.717a7.4965,7.4965,0,0,0,7.475,6.928h32.353l6.447-41.906-25.268-110.538a8.74046,8.74046,0,0,1,17.041-3.897l26.012,113.793-6.545,42.547h123.98l-6.545-42.547,26.011-113.792a8.74023,8.74023,0,0,1,17.041,3.895l-25.267,110.538,6.446,41.906h32.353a7.49646,7.49646,0,0,0,7.475-6.928l13.597-178.717A40.97773,40.97773,0,0,0,233.13351,58.799Zm-92.92,159.108a6.992,6.992,0,0,1-13.984,0V87.962a6.992,6.992,0,0,1,13.984,0Z"/><path id="b86f9b67-0adf-43c3-a4c6-ec53147cba35" data-name="Rygg" class="e6bfe88e-7594-43f1-a306-60364e6c28b9" d="M875.69152,61.17062l-38.85-7.403a28.34307,28.34307,0,0,1-23.038-27.843V9.86862a7.497,7.497,0,0,0-7.497-7.497h-61.056a7.497,7.497,0,0,0-7.497,7.497v16.056a28.344,28.344,0,0,1-23.038,27.843l-38.85,7.403a40.97639,40.97639,0,0,0-33.188,43.361l13.597,178.717a7.4965,7.4965,0,0,0,7.475,6.928h32.353l6.447-41.906-25.268-110.538a8.74046,8.74046,0,1,1,17.041-3.897l26.012,113.793-6.545,42.547h123.98l-6.545-42.547,26.011-113.792a8.74023,8.74023,0,0,1,17.041,3.895l-25.267,110.538,6.446,41.906h32.353a7.49646,7.49646,0,0,0,7.475-6.928l13.597-178.717A40.97773,40.97773,0,0,0,875.69152,61.17062Zm-92.92,159.108a6.992,6.992,0,0,1-13.984,0V90.33362a6.992,6.992,0,0,1,13.984,0Z"/><path id="b3885974-894d-42e4-8202-9def2f4b6a49" data-name="Rygg" class="e6bfe88e-7594-43f1-a306-60364e6c28b9" d="M556.61193,60.62024l-38.85-7.403a28.34307,28.34307,0,0,1-23.038-27.843V9.31824a7.497,7.497,0,0,0-7.497-7.497h-61.056a7.497,7.497,0,0,0-7.497,7.497v16.056a28.344,28.344,0,0,1-23.038,27.843l-38.85,7.403a40.97639,40.97639,0,0,0-33.188,43.361l13.597,178.717a7.49651,7.49651,0,0,0,7.475,6.928h32.353l6.447-41.906-25.268-110.538a8.74046,8.74046,0,0,1,17.041-3.897l26.012,113.793-6.545,42.547h123.98l-6.545-42.547,26.011-113.792a8.74023,8.74023,0,0,1,17.041,3.895l-25.267,110.538,6.446,41.906h32.353a7.49647,7.49647,0,0,0,7.475-6.928l13.597-178.717A40.97773,40.97773,0,0,0,556.61193,60.62024Zm-92.92,159.108a6.992,6.992,0,0,1-13.984,0V89.78324a6.992,6.992,0,0,1,13.984,0Z"/><g id="acb92cc2-be4f-4115-adc5-83e696baa8c9" data-name="Sensor"><ellipse class="ff3d6668-2b0f-4621-8cc9-f625372f39ed" cx="125.39677" cy="68.68125" rx="1.66504" ry="1.03608" transform="translate(-15.31363 94.0199) rotate(-38.91825)"/><ellipse class="ff3d6668-2b0f-4621-8cc9-f625372f39ed" cx="142.31823" cy="68.63763" rx="1.04575" ry="1.64963" transform="translate(-6.43362 121.91509) rotate(-45.45287)"/><ellipse class="ff3d6668-2b0f-4621-8cc9-f625372f39ed" cx="125.46049" cy="53.27522" rx="1.32444" ry="1.82124" transform="translate(1.80896 110.624) rotate(-47.88946)"/><ellipse class="ff3d6668-2b0f-4621-8cc9-f625372f39ed" cx="142.34942" cy="53.19687" rx="1.65012" ry="1.04544" transform="translate(3.38767 114.70213) rotate(-44.36549)"/><path class="ff3d6668-2b0f-4621-8cc9-f625372f39ed" d="M143.47119,69.78786a55.70365,55.70365,0,0,0-19.25091,0,34.94723,34.94723,0,0,0,0-17.73957,48.706,48.706,0,0,0,19.25091,0,34.94723,34.94723,0,0,0,0,17.73957Z"/><line class="ede19866-0fe8-4c4a-b712-b6fab7b0cc6c" x1="125.70112" y1="53.51978" x2="127.0249" y2="54.72558"/><line class="ede19866-0fe8-4c4a-b712-b6fab7b0cc6c" x1="142.03488" y1="53.61961" x2="140.84566" y2="54.93662"/><line class="ede19866-0fe8-4c4a-b712-b6fab7b0cc6c" x1="140.41939" y1="66.91858" x2="141.74317" y2="68.12438"/><line class="b88e8a99-bb61-4be4-8d97-52d5647f2497" x1="127.22648" y1="66.86298" x2="126.03726" y2="68.17998"/><ellipse class="ef1624a6-a7df-4241-aae6-41cc8efcbd1a" cx="133.86127" cy="60.99315" rx="0.54539" ry="0.49717"/></g><g id="e5210f5d-83ed-4d74-a7aa-9808a20b78c7" data-name="Sensor"><ellipse class="ff3d6668-2b0f-4621-8cc9-f625372f39ed" cx="448.99193" cy="68.91159" rx="1.66504" ry="1.03608" transform="translate(56.36586 297.35705) rotate(-38.91825)"/><ellipse class="ff3d6668-2b0f-4621-8cc9-f625372f39ed" cx="465.9134" cy="68.86797" rx="1.04575" ry="1.64963" transform="translate(89.99677 352.60161) rotate(-45.45287)"/><ellipse class="ff3d6668-2b0f-4621-8cc9-f625372f39ed" cx="449.05565" cy="53.50556" rx="1.32444" ry="1.82124" transform="translate(108.24227 350.75976) rotate(-47.88946)"/><ellipse class="ff3d6668-2b0f-4621-8cc9-f625372f39ed" cx="465.94458" cy="53.42721" rx="1.65012" ry="1.04544" transform="translate(95.48553 341.03616) rotate(-44.36549)"/><path class="ff3d6668-2b0f-4621-8cc9-f625372f39ed" d="M467.06635,70.0182a55.70365,55.70365,0,0,0-19.25091,0,34.94723,34.94723,0,0,0,0-17.73957,48.706,48.706,0,0,0,19.25091,0,34.94723,34.94723,0,0,0,0,17.73957Z"/><line class="ede19866-0fe8-4c4a-b712-b6fab7b0cc6c" x1="449.29628" y1="53.75012" x2="450.62006" y2="54.95592"/><line class="ede19866-0fe8-4c4a-b712-b6fab7b0cc6c" x1="465.63004" y1="53.84995" x2="464.44082" y2="55.16696"/><line class="ede19866-0fe8-4c4a-b712-b6fab7b0cc6c" x1="464.01455" y1="67.14892" x2="465.33833" y2="68.35472"/><line class="b88e8a99-bb61-4be4-8d97-52d5647f2497" x1="450.82164" y1="67.09332" x2="449.63242" y2="68.41033"/><ellipse class="ef1624a6-a7df-4241-aae6-41cc8efcbd1a" cx="457.45643" cy="61.22349" rx="0.54539" ry="0.49717"/></g><g id="e694a807-8f6d-4fb5-8457-1d6d798fd69b" data-name="Sensor"><ellipse class="ff3d6668-2b0f-4621-8cc9-f625372f39ed" cx="449.2831" cy="255.58824" rx="1.66504" ry="1.03608" transform="translate(-60.84183 338.97415) rotate(-38.91825)"/><ellipse class="ff3d6668-2b0f-4621-8cc9-f625372f39ed" cx="466.20456" cy="255.54463" rx="1.04575" ry="1.64963" transform="translate(-42.95586 408.5329) rotate(-45.45287)"/><ellipse class="ff3d6668-2b0f-4621-8cc9-f625372f39ed" cx="449.34682" cy="240.18222" rx="1.32444" ry="1.82124" transform="translate(-30.14836 412.47394) rotate(-47.88946)"/><ellipse class="ff3d6668-2b0f-4621-8cc9-f625372f39ed" cx="466.23574" cy="240.10387" rx="1.65012" ry="1.04544" transform="translate(-34.96191 394.46239) rotate(-44.36549)"/><path class="ff3d6668-2b0f-4621-8cc9-f625372f39ed" d="M467.35752,256.69486a55.7037,55.7037,0,0,0-19.25092,0,34.94693,34.94693,0,0,0,0-17.73957,48.70606,48.70606,0,0,0,19.25092,0,34.94693,34.94693,0,0,0,0,17.73957Z"/><line class="ede19866-0fe8-4c4a-b712-b6fab7b0cc6c" x1="449.58744" y1="240.42678" x2="450.91122" y2="241.63258"/><line class="ede19866-0fe8-4c4a-b712-b6fab7b0cc6c" x1="465.9212" y1="240.52661" x2="464.73198" y2="241.84362"/><line class="ede19866-0fe8-4c4a-b712-b6fab7b0cc6c" x1="464.30571" y1="253.82558" x2="465.62949" y2="255.03138"/><line class="b88e8a99-bb61-4be4-8d97-52d5647f2497" x1="451.11281" y1="253.76997" x2="449.92358" y2="255.08698"/><ellipse class="ef1624a6-a7df-4241-aae6-41cc8efcbd1a" cx="457.74759" cy="247.90015" rx="0.54539" ry="0.49717"/></g><g id="b30b0428-4a1b-4b3a-b434-6aedb6985998" data-name="Sensor"><ellipse class="ff3d6668-2b0f-4621-8cc9-f625372f39ed" cx="767.99193" cy="68.91159" rx="1.66504" ry="1.03608" transform="translate(127.17013 497.75635) rotate(-38.91825)"/><ellipse class="ff3d6668-2b0f-4621-8cc9-f625372f39ed" cx="784.9134" cy="68.86797" rx="1.04575" ry="1.64963" transform="translate(185.21965 579.94452) rotate(-45.45287)"/><ellipse class="ff3d6668-2b0f-4621-8cc9-f625372f39ed" cx="768.05565" cy="53.50556" rx="1.32444" ry="1.82124" transform="translate(213.33263 587.41071) rotate(-47.88946)"/><ellipse class="ff3d6668-2b0f-4621-8cc9-f625372f39ed" cx="784.94458" cy="53.42721" rx="1.65012" ry="1.04544" transform="translate(186.43434 564.09144) rotate(-44.36549)"/><path class="ff3d6668-2b0f-4621-8cc9-f625372f39ed" d="M786.06635,70.0182a55.70365,55.70365,0,0,0-19.25091,0,34.94723,34.94723,0,0,0,0-17.73957,48.706,48.706,0,0,0,19.25091,0,34.94723,34.94723,0,0,0,0,17.73957Z"/><line class="ede19866-0fe8-4c4a-b712-b6fab7b0cc6c" x1="768.29628" y1="53.75012" x2="769.62006" y2="54.95592"/><line class="ede19866-0fe8-4c4a-b712-b6fab7b0cc6c" x1="784.63004" y1="53.84995" x2="783.44082" y2="55.16696"/><line class="ede19866-0fe8-4c4a-b712-b6fab7b0cc6c" x1="783.01455" y1="67.14892" x2="784.33833" y2="68.35472"/><line class="b88e8a99-bb61-4be4-8d97-52d5647f2497" x1="769.82164" y1="67.09332" x2="768.63242" y2="68.41033"/><ellipse class="ef1624a6-a7df-4241-aae6-41cc8efcbd1a" cx="776.45643" cy="61.22349" rx="0.54539" ry="0.49717"/></g><g id="f6cdadef-bf3e-4a3b-b536-d1fad7bb000d" data-name="Sensor"><ellipse class="ff3d6668-2b0f-4621-8cc9-f625372f39ed" cx="843.2831" cy="94.58824" rx="1.66504" ry="1.03608" transform="translate(127.75117 550.75419) rotate(-38.91825)"/><ellipse class="ff3d6668-2b0f-4621-8cc9-f625372f39ed" cx="860.20456" cy="94.54463" rx="1.04575" ry="1.64963" transform="translate(189.39531 641.26715) rotate(-45.45287)"/><ellipse class="ff3d6668-2b0f-4621-8cc9-f625372f39ed" cx="843.34682" cy="79.18222" rx="1.32444" ry="1.82124" transform="translate(219.08803 651.72448) rotate(-47.88946)"/><ellipse class="ff3d6668-2b0f-4621-8cc9-f625372f39ed" cx="860.23574" cy="79.10387" rx="1.65012" ry="1.04544" transform="translate(189.94634 624.05806) rotate(-44.36549)"/><path class="ff3d6668-2b0f-4621-8cc9-f625372f39ed" d="M861.35752,95.69486a55.7037,55.7037,0,0,0-19.25092,0,34.94693,34.94693,0,0,0,0-17.73957,48.70606,48.70606,0,0,0,19.25092,0,34.94693,34.94693,0,0,0,0,17.73957Z"/><line class="ede19866-0fe8-4c4a-b712-b6fab7b0cc6c" x1="843.58744" y1="79.42678" x2="844.91122" y2="80.63258"/><line class="ede19866-0fe8-4c4a-b712-b6fab7b0cc6c" x1="859.9212" y1="79.52661" x2="858.73198" y2="80.84362"/><line class="ede19866-0fe8-4c4a-b712-b6fab7b0cc6c" x1="858.30571" y1="92.82558" x2="859.62949" y2="94.03138"/><line class="b88e8a99-bb61-4be4-8d97-52d5647f2497" x1="845.11281" y1="92.76997" x2="843.92358" y2="94.08698"/><ellipse class="ef1624a6-a7df-4241-aae6-41cc8efcbd1a" cx="851.74759" cy="86.90015" rx="0.54539" ry="0.49717"/></g><g id="fe9953ac-14b7-4d75-8cec-2d4617580334" data-name="Sensor"><ellipse class="ff3d6668-2b0f-4621-8cc9-f625372f39ed" cx="768.2831" cy="255.58824" rx="1.66504" ry="1.03608" transform="translate(9.96243 539.37344) rotate(-38.91825)"/><ellipse class="ff3d6668-2b0f-4621-8cc9-f625372f39ed" cx="785.20456" cy="255.54463" rx="1.04575" ry="1.64963" transform="translate(52.26702 635.87582) rotate(-45.45287)"/><ellipse class="ff3d6668-2b0f-4621-8cc9-f625372f39ed" cx="768.34682" cy="240.18222" rx="1.32444" ry="1.82124" transform="translate(74.94201 649.12488) rotate(-47.88946)"/><ellipse class="ff3d6668-2b0f-4621-8cc9-f625372f39ed" cx="785.23574" cy="240.10387" rx="1.65012" ry="1.04544" transform="translate(55.9869 617.51766) rotate(-44.36549)"/><path class="ff3d6668-2b0f-4621-8cc9-f625372f39ed" d="M786.35752,256.69486a55.7037,55.7037,0,0,0-19.25092,0,34.94693,34.94693,0,0,0,0-17.73957,48.70606,48.70606,0,0,0,19.25092,0,34.94693,34.94693,0,0,0,0,17.73957Z"/><line class="ede19866-0fe8-4c4a-b712-b6fab7b0cc6c" x1="768.58744" y1="240.42678" x2="769.91122" y2="241.63258"/><line class="ede19866-0fe8-4c4a-b712-b6fab7b0cc6c" x1="784.9212" y1="240.52661" x2="783.73198" y2="241.84362"/><line class="ede19866-0fe8-4c4a-b712-b6fab7b0cc6c" x1="783.30571" y1="253.82558" x2="784.62949" y2="255.03138"/><line class="b88e8a99-bb61-4be4-8d97-52d5647f2497" x1="770.11281" y1="253.76997" x2="768.92358" y2="255.08698"/><ellipse class="ef1624a6-a7df-4241-aae6-41cc8efcbd1a" cx="776.74759" cy="247.90015" rx="0.54539" ry="0.49717"/></g></g></g></svg>