<?xml version="1.0" encoding="utf-8"?>
<!-- Generator: Adobe Illustrator 24.0.2, SVG Export Plug-In . SVG Version: 6.00 Build 0)  -->
<svg version="1.1" xmlns="http://www.w3.org/2000/svg" xmlns:xlink="http://www.w3.org/1999/xlink" x="0px" y="0px"
	 viewBox="0 0 1007.5 975.8" style="enable-background:new 0 0 1007.5 975.8;" xml:space="preserve">
<style type="text/css">
	.st0{display:none;}
	.st1{display:inline;fill:#0F3762;}
	.st2{fill:#FEFEFE;}
	.st3{font-family:'Nunito-Black';}
	.st4{font-size:120px;}
	.st5{fill:#EDB93C;}
</style>
<g id="Background" class="st0">
	<rect x="0" class="st1" width="1007.5" height="975.8"/>
</g>
<g id="Text">
	<text transform="matrix(1.0059 0 0 1 99.4659 733.0353)" class="st2 st3 st4">Got Your Back</text>
</g>
<g id="Logo">
	<title>20, spine, human, organ, biology,health</title>
	<path class="st5" d="M660.4,187.4c-37.1-13.7-84-23.1-143.1-28.2c-28.9-27.4-43.3-28.1-71.4-9.6c-5.9,4.5-12.6,8-19.7,10.2
		c-5.3,0.8-10.7,0.6-16-0.5c-12.6-1.9-28.4-4.2-44.1,14.8c-12.3,14.6-12.5,35.6-0.5,50.4c8,10.4,22.5,13.6,34.4,7.7
		c10.8-5.2,38.8-16.7,49.3-20.9l6.4,4.5l-6.5,33.6c-1.7,9.1,4.3,17.8,13.6,19.8c54.6,17.9,111.4,28.8,169,32.7
		c7.5,0.4,14.8-2.2,20.2-7.2c5.3-5,8.2-11.8,8-19c0-20.4-2.2-21.3,8-47.1c2.1-5,3.9-10.2,5.4-15.4
		C676.7,202.6,671,191.4,660.4,187.4z"/>
	<path class="st5" d="M381.8,394.5c9.8-6.8,35.7-22.2,45.4-28l7,3.5l-1,34.2c-0.4,9.2,7,17,16.5,17.6c39.6,6.3,79.6,9.6,119.7,9.9
		c18.3,0,35.8-0.8,52.6-2.5c7.5-0.8,14.3-4.5,18.8-10.3c11.4-14.6,1-26.7,1.5-43.9c0.5-13.7,5.2-27.2,6.6-39.9
		c1.2-10.8-6.2-20.7-17.2-23.1c-38.9-7.7-86.7-10.2-145.9-6.7c-17.7-12.2-31.9-17.7-42.5-16c-21.7,3.2-31.9,23.7-47.9,30
		c-14.7,5.7-39-7-56.7,23.1c-9.8,16.3-6.7,37,7.5,49.9C356,401.4,371,402.3,381.8,394.5z"/>
	<path class="st5" d="M651.1,453.9c-1.2-11-11-19.2-22.4-18.8c-39.9,1-86.7,9.7-143.7,26.7c-20.2-7.7-35.4-9.9-45.2-6
		c-10.4,5.1-19,13.2-24.6,23.1c-11.8,17.4-15.5,18.7-29,21.9c-13.5,3.2-27.9,6.6-34.8,29.9c-11.1,37.1,31.9,66.1,54.4,41.4
		c8-8.9,29.3-29.7,37.4-37.5l8,1.8l7.3,33.5c1.6,8,8.8,13.8,17.2,13.9c1,0.1,2.1,0.1,3.1,0c57.6-3.8,114.4-14.6,169.1-32.3
		c7.1-2.4,12.9-7.5,16-14.2c7.5-16.8-5.6-26.2-9.3-43C651.8,480.7,652.8,466.6,651.1,453.9z"/>
</g>
</svg>
